<mxfile host="app.diagrams.net" modified="2023-11-21T21:25:59.412Z" agent="Mozilla/5.0 (Windows NT 10.0; Win64; x64; rv:109.0) Gecko/20100101 Firefox/119.0" etag="lcHEouhh0bqtBV7eXrZa" version="22.1.3" type="github">
  <diagram name="Page-1" id="snpHLA8qsAUlfrPBCm4x">
    <mxGraphModel dx="2950" dy="1076" grid="1" gridSize="10" guides="1" tooltips="1" connect="1" arrows="1" fold="1" page="1" pageScale="1" pageWidth="850" pageHeight="1100" math="0" shadow="0">
      <root>
        <mxCell id="0" />
        <mxCell id="1" parent="0" />
        <mxCell id="FGc_cmqXuBcvHCfSUEs1-1" value="F_name" style="whiteSpace=wrap;html=1;align=center;" vertex="1" parent="1">
          <mxGeometry y="40" width="100" height="40" as="geometry" />
        </mxCell>
        <mxCell id="FGc_cmqXuBcvHCfSUEs1-2" value="&lt;b&gt;VOTER&lt;/b&gt;" style="text;html=1;align=center;verticalAlign=middle;resizable=0;points=[];autosize=1;strokeColor=none;fillColor=none;" vertex="1" parent="1">
          <mxGeometry y="10" width="70" height="30" as="geometry" />
        </mxCell>
        <mxCell id="FGc_cmqXuBcvHCfSUEs1-3" value="M_init" style="whiteSpace=wrap;html=1;align=center;" vertex="1" parent="1">
          <mxGeometry x="100" y="40" width="100" height="40" as="geometry" />
        </mxCell>
        <mxCell id="FGc_cmqXuBcvHCfSUEs1-4" value="L_name" style="whiteSpace=wrap;html=1;align=center;" vertex="1" parent="1">
          <mxGeometry x="200" y="40" width="100" height="40" as="geometry" />
        </mxCell>
        <mxCell id="FGc_cmqXuBcvHCfSUEs1-5" value="&lt;u&gt;SSN&lt;/u&gt;" style="whiteSpace=wrap;html=1;align=center;" vertex="1" parent="1">
          <mxGeometry x="300" y="40" width="100" height="40" as="geometry" />
        </mxCell>
        <mxCell id="FGc_cmqXuBcvHCfSUEs1-6" value="Address " style="whiteSpace=wrap;html=1;align=center;" vertex="1" parent="1">
          <mxGeometry x="400" y="40" width="100" height="40" as="geometry" />
        </mxCell>
        <mxCell id="FGc_cmqXuBcvHCfSUEs1-7" value="Gender" style="whiteSpace=wrap;html=1;align=center;" vertex="1" parent="1">
          <mxGeometry x="500" y="40" width="100" height="40" as="geometry" />
        </mxCell>
        <mxCell id="FGc_cmqXuBcvHCfSUEs1-8" value="B_date" style="whiteSpace=wrap;html=1;align=center;" vertex="1" parent="1">
          <mxGeometry x="600" y="40" width="100" height="40" as="geometry" />
        </mxCell>
        <mxCell id="FGc_cmqXuBcvHCfSUEs1-9" value="F_name" style="whiteSpace=wrap;html=1;align=center;" vertex="1" parent="1">
          <mxGeometry y="200" width="100" height="40" as="geometry" />
        </mxCell>
        <mxCell id="FGc_cmqXuBcvHCfSUEs1-10" value="&lt;b&gt;CANDIDATE&lt;/b&gt;" style="text;html=1;align=center;verticalAlign=middle;resizable=0;points=[];autosize=1;strokeColor=none;fillColor=none;" vertex="1" parent="1">
          <mxGeometry y="170" width="90" height="30" as="geometry" />
        </mxCell>
        <mxCell id="FGc_cmqXuBcvHCfSUEs1-11" value="M_init" style="whiteSpace=wrap;html=1;align=center;" vertex="1" parent="1">
          <mxGeometry x="100" y="200" width="100" height="40" as="geometry" />
        </mxCell>
        <mxCell id="FGc_cmqXuBcvHCfSUEs1-12" value="L_name" style="whiteSpace=wrap;html=1;align=center;" vertex="1" parent="1">
          <mxGeometry x="200" y="200" width="100" height="40" as="geometry" />
        </mxCell>
        <mxCell id="FGc_cmqXuBcvHCfSUEs1-13" value="SSN" style="whiteSpace=wrap;html=1;align=center;" vertex="1" parent="1">
          <mxGeometry x="300" y="200" width="100" height="40" as="geometry" />
        </mxCell>
        <mxCell id="FGc_cmqXuBcvHCfSUEs1-14" value="P_party" style="whiteSpace=wrap;html=1;align=center;" vertex="1" parent="1">
          <mxGeometry x="400" y="200" width="100" height="40" as="geometry" />
        </mxCell>
        <mxCell id="FGc_cmqXuBcvHCfSUEs1-15" value="Gender" style="whiteSpace=wrap;html=1;align=center;" vertex="1" parent="1">
          <mxGeometry x="500" y="200" width="100" height="40" as="geometry" />
        </mxCell>
        <mxCell id="FGc_cmqXuBcvHCfSUEs1-16" value="B_date" style="whiteSpace=wrap;html=1;align=center;" vertex="1" parent="1">
          <mxGeometry x="600" y="200" width="100" height="40" as="geometry" />
        </mxCell>
        <mxCell id="FGc_cmqXuBcvHCfSUEs1-17" value="&lt;u&gt;Candidate_ID&lt;/u&gt;" style="whiteSpace=wrap;html=1;align=center;" vertex="1" parent="1">
          <mxGeometry x="700" y="200" width="100" height="40" as="geometry" />
        </mxCell>
        <mxCell id="FGc_cmqXuBcvHCfSUEs1-18" value="Can_Number" style="whiteSpace=wrap;html=1;align=center;" vertex="1" parent="1">
          <mxGeometry x="800" y="200" width="100" height="40" as="geometry" />
        </mxCell>
        <mxCell id="FGc_cmqXuBcvHCfSUEs1-19" value="Can_Symbol" style="whiteSpace=wrap;html=1;align=center;" vertex="1" parent="1">
          <mxGeometry x="900" y="200" width="100" height="40" as="geometry" />
        </mxCell>
        <mxCell id="FGc_cmqXuBcvHCfSUEs1-20" value="&lt;u&gt;E_number&lt;/u&gt;" style="whiteSpace=wrap;html=1;align=center;" vertex="1" parent="1">
          <mxGeometry y="360" width="100" height="40" as="geometry" />
        </mxCell>
        <mxCell id="FGc_cmqXuBcvHCfSUEs1-21" value="&lt;b&gt;ELECTION EVENT&lt;/b&gt;" style="text;html=1;align=center;verticalAlign=middle;resizable=0;points=[];autosize=1;strokeColor=none;fillColor=none;" vertex="1" parent="1">
          <mxGeometry x="-5" y="330" width="130" height="30" as="geometry" />
        </mxCell>
        <mxCell id="FGc_cmqXuBcvHCfSUEs1-22" value="Start_date" style="whiteSpace=wrap;html=1;align=center;" vertex="1" parent="1">
          <mxGeometry x="100" y="360" width="100" height="40" as="geometry" />
        </mxCell>
        <mxCell id="FGc_cmqXuBcvHCfSUEs1-23" value="End_date" style="whiteSpace=wrap;html=1;align=center;" vertex="1" parent="1">
          <mxGeometry x="200" y="360" width="100" height="40" as="geometry" />
        </mxCell>
        <mxCell id="FGc_cmqXuBcvHCfSUEs1-24" value="Type" style="whiteSpace=wrap;html=1;align=center;" vertex="1" parent="1">
          <mxGeometry x="300" y="360" width="100" height="40" as="geometry" />
        </mxCell>
        <mxCell id="FGc_cmqXuBcvHCfSUEs1-25" value="Name" style="whiteSpace=wrap;html=1;align=center;" vertex="1" parent="1">
          <mxGeometry x="400" y="360" width="100" height="40" as="geometry" />
        </mxCell>
        <mxCell id="FGc_cmqXuBcvHCfSUEs1-28" value="Timestamp" style="whiteSpace=wrap;html=1;align=center;" vertex="1" parent="1">
          <mxGeometry y="520" width="100" height="40" as="geometry" />
        </mxCell>
        <mxCell id="FGc_cmqXuBcvHCfSUEs1-29" value="&lt;b&gt;VOTE&lt;/b&gt;" style="text;html=1;align=center;verticalAlign=middle;resizable=0;points=[];autosize=1;strokeColor=none;fillColor=none;" vertex="1" parent="1">
          <mxGeometry y="490" width="60" height="30" as="geometry" />
        </mxCell>
        <mxCell id="FGc_cmqXuBcvHCfSUEs1-30" value="Location" style="whiteSpace=wrap;html=1;align=center;" vertex="1" parent="1">
          <mxGeometry x="100" y="520" width="100" height="40" as="geometry" />
        </mxCell>
        <mxCell id="FGc_cmqXuBcvHCfSUEs1-72" style="edgeStyle=orthogonalEdgeStyle;rounded=0;orthogonalLoop=1;jettySize=auto;html=1;exitX=0.5;exitY=1;exitDx=0;exitDy=0;entryX=0.5;entryY=1;entryDx=0;entryDy=0;" edge="1" parent="1" source="FGc_cmqXuBcvHCfSUEs1-31" target="FGc_cmqXuBcvHCfSUEs1-5">
          <mxGeometry relative="1" as="geometry">
            <mxPoint x="1210" y="99.99999999999989" as="targetPoint" />
            <Array as="points">
              <mxPoint x="250" y="680" />
              <mxPoint x="1240" y="680" />
              <mxPoint x="1240" y="140" />
              <mxPoint x="350" y="140" />
            </Array>
          </mxGeometry>
        </mxCell>
        <mxCell id="FGc_cmqXuBcvHCfSUEs1-31" value="&lt;u&gt;Voter_SSN&lt;/u&gt;" style="whiteSpace=wrap;html=1;align=center;" vertex="1" parent="1">
          <mxGeometry x="200" y="520" width="100" height="40" as="geometry" />
        </mxCell>
        <mxCell id="FGc_cmqXuBcvHCfSUEs1-77" style="edgeStyle=orthogonalEdgeStyle;rounded=0;orthogonalLoop=1;jettySize=auto;html=1;exitX=0.5;exitY=1;exitDx=0;exitDy=0;entryX=0.5;entryY=1;entryDx=0;entryDy=0;" edge="1" parent="1" source="FGc_cmqXuBcvHCfSUEs1-32" target="FGc_cmqXuBcvHCfSUEs1-17">
          <mxGeometry relative="1" as="geometry">
            <Array as="points">
              <mxPoint x="350" y="660" />
              <mxPoint x="750" y="660" />
            </Array>
          </mxGeometry>
        </mxCell>
        <mxCell id="FGc_cmqXuBcvHCfSUEs1-32" value="&lt;u&gt;Candidate_ID&lt;/u&gt;" style="whiteSpace=wrap;html=1;align=center;" vertex="1" parent="1">
          <mxGeometry x="300" y="520" width="100" height="40" as="geometry" />
        </mxCell>
        <mxCell id="FGc_cmqXuBcvHCfSUEs1-76" style="edgeStyle=orthogonalEdgeStyle;rounded=0;orthogonalLoop=1;jettySize=auto;html=1;exitX=0.5;exitY=1;exitDx=0;exitDy=0;entryX=0;entryY=1;entryDx=0;entryDy=0;" edge="1" parent="1" source="FGc_cmqXuBcvHCfSUEs1-33" target="FGc_cmqXuBcvHCfSUEs1-20">
          <mxGeometry relative="1" as="geometry">
            <Array as="points">
              <mxPoint x="450" y="630" />
              <mxPoint x="680" y="630" />
              <mxPoint x="680" y="490" />
              <mxPoint y="490" />
            </Array>
          </mxGeometry>
        </mxCell>
        <mxCell id="FGc_cmqXuBcvHCfSUEs1-33" value="&lt;u&gt;E_number&lt;/u&gt;" style="whiteSpace=wrap;html=1;align=center;" vertex="1" parent="1">
          <mxGeometry x="400" y="520" width="100" height="40" as="geometry" />
        </mxCell>
        <mxCell id="FGc_cmqXuBcvHCfSUEs1-36" value="E_location" style="whiteSpace=wrap;html=1;align=center;" vertex="1" parent="1">
          <mxGeometry y="680" width="100" height="40" as="geometry" />
        </mxCell>
        <mxCell id="FGc_cmqXuBcvHCfSUEs1-37" value="&lt;b&gt;Event_Locations&lt;/b&gt;" style="text;html=1;align=center;verticalAlign=middle;resizable=0;points=[];autosize=1;strokeColor=none;fillColor=none;" vertex="1" parent="1">
          <mxGeometry y="650" width="120" height="30" as="geometry" />
        </mxCell>
        <mxCell id="FGc_cmqXuBcvHCfSUEs1-75" style="edgeStyle=orthogonalEdgeStyle;rounded=0;orthogonalLoop=1;jettySize=auto;html=1;exitX=0.5;exitY=1;exitDx=0;exitDy=0;entryX=0.25;entryY=1;entryDx=0;entryDy=0;" edge="1" parent="1" source="FGc_cmqXuBcvHCfSUEs1-38" target="FGc_cmqXuBcvHCfSUEs1-20">
          <mxGeometry relative="1" as="geometry">
            <Array as="points">
              <mxPoint x="150" y="740" />
              <mxPoint x="810" y="740" />
              <mxPoint x="810" y="470" />
              <mxPoint x="25" y="470" />
            </Array>
          </mxGeometry>
        </mxCell>
        <mxCell id="FGc_cmqXuBcvHCfSUEs1-38" value="&lt;u&gt;E_number&lt;/u&gt;" style="whiteSpace=wrap;html=1;align=center;" vertex="1" parent="1">
          <mxGeometry x="100" y="680" width="100" height="40" as="geometry" />
        </mxCell>
        <mxCell id="FGc_cmqXuBcvHCfSUEs1-73" style="edgeStyle=orthogonalEdgeStyle;rounded=0;orthogonalLoop=1;jettySize=auto;html=1;exitX=0.5;exitY=1;exitDx=0;exitDy=0;entryX=0.75;entryY=1;entryDx=0;entryDy=0;" edge="1" parent="1" source="FGc_cmqXuBcvHCfSUEs1-60" target="FGc_cmqXuBcvHCfSUEs1-5">
          <mxGeometry relative="1" as="geometry">
            <Array as="points">
              <mxPoint x="50" y="930" />
              <mxPoint x="1270" y="930" />
              <mxPoint x="1270" y="110" />
              <mxPoint x="375" y="110" />
            </Array>
          </mxGeometry>
        </mxCell>
        <mxCell id="FGc_cmqXuBcvHCfSUEs1-60" value="&lt;u&gt;SSN&lt;/u&gt;" style="whiteSpace=wrap;html=1;align=center;" vertex="1" parent="1">
          <mxGeometry y="840" width="100" height="40" as="geometry" />
        </mxCell>
        <mxCell id="FGc_cmqXuBcvHCfSUEs1-61" value="&lt;b&gt;REGISTER_FOR&lt;/b&gt;" style="text;html=1;align=center;verticalAlign=middle;resizable=0;points=[];autosize=1;strokeColor=none;fillColor=none;" vertex="1" parent="1">
          <mxGeometry y="810" width="120" height="30" as="geometry" />
        </mxCell>
        <mxCell id="FGc_cmqXuBcvHCfSUEs1-74" style="edgeStyle=orthogonalEdgeStyle;rounded=0;orthogonalLoop=1;jettySize=auto;html=1;exitX=0.5;exitY=1;exitDx=0;exitDy=0;entryX=0.5;entryY=1;entryDx=0;entryDy=0;" edge="1" parent="1" source="FGc_cmqXuBcvHCfSUEs1-62" target="FGc_cmqXuBcvHCfSUEs1-20">
          <mxGeometry relative="1" as="geometry">
            <Array as="points">
              <mxPoint x="150" y="900" />
              <mxPoint x="840" y="900" />
              <mxPoint x="840" y="450" />
              <mxPoint x="50" y="450" />
            </Array>
          </mxGeometry>
        </mxCell>
        <mxCell id="FGc_cmqXuBcvHCfSUEs1-62" value="&lt;u&gt;E_number&lt;/u&gt;" style="whiteSpace=wrap;html=1;align=center;" vertex="1" parent="1">
          <mxGeometry x="100" y="840" width="100" height="40" as="geometry" />
        </mxCell>
        <mxCell id="FGc_cmqXuBcvHCfSUEs1-78" style="edgeStyle=orthogonalEdgeStyle;rounded=0;orthogonalLoop=1;jettySize=auto;html=1;exitX=0.5;exitY=1;exitDx=0;exitDy=0;entryX=0.75;entryY=1;entryDx=0;entryDy=0;" edge="1" parent="1" source="FGc_cmqXuBcvHCfSUEs1-70" target="FGc_cmqXuBcvHCfSUEs1-20">
          <mxGeometry relative="1" as="geometry">
            <mxPoint x="110" y="430" as="targetPoint" />
            <Array as="points">
              <mxPoint x="1050" y="430" />
              <mxPoint x="75" y="430" />
            </Array>
          </mxGeometry>
        </mxCell>
        <mxCell id="FGc_cmqXuBcvHCfSUEs1-70" value="&lt;u&gt;E_number&lt;/u&gt;" style="whiteSpace=wrap;html=1;align=center;" vertex="1" parent="1">
          <mxGeometry x="1000" y="200" width="100" height="40" as="geometry" />
        </mxCell>
      </root>
    </mxGraphModel>
  </diagram>
</mxfile>
